<svg width="22" height="21" viewBox="0 0 22 21" fill="none" xmlns="http://www.w3.org/2000/svg">
    <path d="m18.273 8.81-6.406-6.044a1.281 1.281 0 0 0-1.733-.009l-.008.009-6.4 6.044a1.281 1.281 0 0 0-.413.944v7.403a1.281 1.281 0 0 0 1.28 1.281h3.845a1.281 1.281 0 0 0 1.28-1.281v-3.844h2.563v3.844a1.281 1.281 0 0 0 1.281 1.281h3.844a1.281 1.281 0 0 0 1.282-1.281V9.754a1.283 1.283 0 0 0-.415-.944zm-.867 8.347h-3.843v-3.844a1.281 1.281 0 0 0-1.282-1.281H9.72a1.281 1.281 0 0 0-1.281 1.281v3.844H4.594V9.754l.009-.008L11 3.704l6.398 6.04.01.008-.002 7.405z" fill="#fff"/>
</svg>
