<svg width="115" height="24" viewBox="0 0 115 24" fill="none" xmlns="http://www.w3.org/2000/svg">
<path d="M8.66496 0.543945H0V22.3206H4.42732V15.7539H8.66496C13.1851 15.7539 16.4461 12.5499 16.4461 8.1628C16.442 3.77968 13.1851 0.543945 8.66496 0.543945ZM8.66496 11.3985H4.42732V4.89928H8.66496C10.7838 4.89928 12.0187 6.26901 12.0187 8.16677C12.0147 10.0328 10.7838 11.3985 8.66496 11.3985Z" fill="#F9F8F7"/>
<path d="M41.2504 22.3206H55.5453V17.9653H45.6777V13.61H55.5453V9.25461H45.6777V4.89928H55.5453V0.543945H41.2504V22.3206Z" fill="#F9F8F7"/>
<path d="M89.4868 0.543945H85.0594V22.3206H89.4868V0.543945Z" fill="#F9F8F7"/>
<path d="M109.973 0.543945V14.8526L98.0226 0.543945H94.1643V22.3206H98.5916V8.00797L110.542 22.3206H114.4V0.543945H109.973Z" fill="#F9F8F7"/>
<path d="M81.1608 11.2834C81.1608 5.05012 76.0232 0 69.6909 0C63.3587 0 58.2211 5.05012 58.2211 11.2834C58.2211 17.5166 63.3547 22.5667 69.6909 22.5667C71.725 22.5667 73.6299 22.0427 75.2887 21.1295L78.2066 24L81.298 20.9588L78.6384 18.3424C80.2124 16.4089 81.1608 13.9553 81.1608 11.2834ZM69.6909 18.128C65.8569 18.128 62.7372 15.0591 62.7372 11.2834C62.7372 7.51166 65.8569 4.44268 69.6909 4.44268C73.525 4.44268 76.6447 7.51166 76.6447 11.2834C76.6447 12.7246 76.1886 14.0665 75.4097 15.1702L72.4757 12.2839L69.3842 15.3251L71.8743 17.7747C71.1882 18.001 70.4537 18.128 69.6909 18.128Z" fill="#F9F8F7"/>
<path d="M37.0208 8.13501C37.0208 3.74792 33.7638 0.543945 29.2074 0.543945H19.5334V22.3206H23.9608V15.7539H29.1468L33.3199 22.3167H38.4414L33.5136 14.6025C35.693 13.2963 37.0208 10.934 37.0208 8.13501ZM32.3916 9.30623C32.3674 9.37769 32.3432 9.44519 32.315 9.51268C32.1697 9.86603 31.9759 10.1836 31.7096 10.4497C31.7055 10.4536 31.7015 10.4576 31.6975 10.4616C31.532 10.6283 31.3504 10.7792 31.1405 10.9062C30.6199 11.2159 29.9782 11.3747 29.2114 11.3747L26.3661 11.4025H23.9608V11.3747V4.90325H29.2114C31.3625 4.90325 32.5975 6.27298 32.5975 8.13898C32.5934 8.55983 32.5127 8.94494 32.3916 9.30623Z" fill="#F9F8F7"/>
</svg>
